<?xml version="1.0" encoding="utf-8"?>
<!-- Generator: Adobe Illustrator 25.0.0, SVG Export Plug-In . SVG Version: 6.00 Build 0)  -->
<svg version="1.1" xmlns="http://www.w3.org/2000/svg" xmlns:xlink="http://www.w3.org/1999/xlink" x="0px" y="0px"
	 viewBox="0 0 100 100" style="enable-background:new 0 0 100 100;" xml:space="preserve">
<style type="text/css">
	.st0{fill:#00BBE6;}
	.st1{fill:#FF2C5E;}
	.st2{fill:none;stroke:#0A2240;stroke-width:3;stroke-linecap:round;stroke-linejoin:round;stroke-miterlimit:10;}
	.st3{fill:#FFFFFF;}
</style>
<g id="BACKGROUND">
</g>
<g id="OBJECTS">
	<g>
		<path class="st0" d="M94.8,45.1c-1.9-1-2.8-3.2-2.8-6.6v-7.2c0-4.4-1.1-7.9-3.2-10.6c-2.1-2.7-5.3-4.6-9.6-5.8v7.8
			c1.5,1.7,2.3,4.3,2.4,8v7.7c0,5.3,2.2,9.1,6.6,11.3c-4.4,2.2-6.6,5.9-6.6,11.3v7.7c-0.1,3.7-0.9,6.4-2.4,8v7.9
			c8.4-2.4,12.7-7.7,12.8-16.1V61c0-3.3,0.9-5.5,2.8-6.5c1.8-0.9,2.9-2.7,2.9-4.7C97.7,47.8,96.5,46.1,94.8,45.1z"/>
		<path class="st0" d="M6.4,45.5c1.9-1,2.8-3.2,2.8-6.6v-7.2c0-4.4,1.1-7.9,3.2-10.6c2.1-2.7,5.3-4.6,9.6-5.8v7.8
			c-1.5,1.7-2.3,4.3-2.4,8v7.7c0,5.3-2.2,9.1-6.6,11.3c4.4,2.2,6.6,5.9,6.6,11.3v7.7c0.1,3.7,0.9,6.4,2.4,8v7.9
			C13.7,82.7,9.4,77.4,9.2,69v-7.6c0-3.3-0.9-5.5-2.8-6.5c-1.8-0.9-2.9-2.7-2.9-4.7C3.5,48.2,4.6,46.4,6.4,45.5z"/>
		<g>
			<g>
				<path class="st1" d="M73.6,43.7c0,2.9-1.1,5.9-3.4,8.1l-3.7,3.7h0L50.2,71.8l-9.7-9.7l0,0L38.4,60L34,55.6l-3.7-3.7
					c-2.2-2.2-3.4-5.2-3.4-8.1c0-2.9,1.1-5.9,3.4-8.1c4.5-4.5,11.8-4.5,16.3,0l3.7,3.7l3.7-3.7c2.8-2.8,6.6-3.8,10.2-3.1
					c0.1,0,0.2,0,0.3,0c0.1,0,0.3,0,0.4,0.1c0.9,0.2,1.8,0.5,2.6,1c0,0,0,0,0,0c1,0.5,1.9,1.2,2.8,2C72.4,37.8,73.6,40.8,73.6,43.7z
					"/>
			</g>
			<g>
				<path class="st2" d="M33.2,67.7L23.1,78.4 M76.9,78.4c3-1.1,4.6-4.3,4.7-9.6v-7.7c0-5.3,2.2-9.1,6.6-11.3
					c-4.4-2.2-6.6-5.9-6.6-11.3v-7.7c-0.1-5.3-1.7-8.4-4.7-9.6l-5.3,5.6"/>
			</g>
			<g>
				<path class="st2" d="M23.1,21.2c-3,1.1-4.6,4.3-4.7,9.6v7.7c0,5.3-2.2,9.1-6.6,11.3c4.4,2.2,6.6,5.9,6.6,11.3v7.7
					c0.1,5.3,1.7,8.4,4.7,9.6"/>
			</g>
			<g>
				<polygon class="st3" points="67.4,33.5 56.8,44.8 40.6,62.1 38.4,60 54.6,42.7 64.2,32.4 				"/>
			</g>
			<path class="st2" d="M79.1,14.9c4.3,1.2,7.5,3.1,9.6,5.8c2.1,2.7,3.2,6.2,3.2,10.6v7.2c0,3.4,0.9,5.6,2.8,6.6
				c1.8,0.9,2.9,2.7,2.9,4.7l0,0c0,2-1.2,3.8-2.9,4.7c-1.9,1-2.8,3.2-2.8,6.5v7.6c-0.2,8.4-4.4,13.7-12.8,16.1"/>
			<path class="st2" d="M20.9,84.7c-4.3-1.2-7.5-3.1-9.6-5.8c-2.1-2.7-3.2-6.2-3.2-10.6v-7.2c0-3.4-0.9-5.6-2.8-6.6
				c-1.8-0.9-2.9-2.7-2.9-4.7l0,0c0-2,1.2-3.8,2.9-4.7c1.9-1,2.8-3.2,2.8-6.5V31c0.2-8.4,4.4-13.7,12.8-16.1"/>
		</g>
	</g>
	<g>
	</g>
	<g>
	</g>
	<g>
	</g>
	<g>
	</g>
	<g>
	</g>
</g>
</svg>
